<svg width="1200" height="630" viewBox="0 0 1200 630" xmlns="http://www.w3.org/2000/svg">
  <!-- Background -->
  <rect width="1200" height="630" fill="#f8fafc"/>
  
  <!-- Green accent background -->
  <rect x="0" y="0" width="1200" height="120" fill="#16a34a"/>
  
  <!-- Main content area -->
  <rect x="50" y="140" width="1100" height="440" fill="white" rx="20" stroke="#e5e7eb" stroke-width="2"/>
  
  <!-- Logo area -->
  <rect x="80" y="170" width="60" height="60" fill="#16a34a" rx="10"/>
  <text x="110" y="210" font-family="Arial, sans-serif" font-size="24" font-weight="bold" fill="white" text-anchor="middle">US</text>
  
  <!-- Title -->
  <text x="160" y="195" font-family="Arial, sans-serif" font-size="36" font-weight="bold" fill="#1f2937">US AgriTech Database</text>
  <text x="160" y="225" font-family="Arial, sans-serif" font-size="18" fill="#6b7280">Professional Agricultural Equipment Specifications Platform</text>
  
  <!-- Equipment icons -->
  <g transform="translate(80, 280)">
    <!-- Tractor icon -->
    <rect x="0" y="0" width="80" height="60" fill="#dcfce7" rx="8"/>
    <text x="40" y="35" font-family="Arial, sans-serif" font-size="24" text-anchor="middle">🚜</text>
    <text x="40" y="55" font-family="Arial, sans-serif" font-size="12" text-anchor="middle" fill="#16a34a">Tractors</text>
    
    <!-- Harvester icon -->
    <rect x="100" y="0" width="80" height="60" fill="#dcfce7" rx="8"/>
    <text x="140" y="35" font-family="Arial, sans-serif" font-size="24" text-anchor="middle">🌾</text>
    <text x="140" y="55" font-family="Arial, sans-serif" font-size="12" text-anchor="middle" fill="#16a34a">Harvesters</text>
    
    <!-- Planter icon -->
    <rect x="200" y="0" width="80" height="60" fill="#dcfce7" rx="8"/>
    <text x="240" y="35" font-family="Arial, sans-serif" font-size="24" text-anchor="middle">🌱</text>
    <text x="240" y="55" font-family="Arial, sans-serif" font-size="12" text-anchor="middle" fill="#16a34a">Planters</text>
    
    <!-- Sprayer icon -->
    <rect x="300" y="0" width="80" height="60" fill="#dcfce7" rx="8"/>
    <text x="340" y="35" font-family="Arial, sans-serif" font-size="24" text-anchor="middle">💧</text>
    <text x="340" y="55" font-family="Arial, sans-serif" font-size="12" text-anchor="middle" fill="#16a34a">Sprayers</text>
  </g>
  
  <!-- Features list -->
  <g transform="translate(80, 380)">
    <text x="0" y="20" font-family="Arial, sans-serif" font-size="16" fill="#374151">✓ Detailed Technical Specifications</text>
    <text x="0" y="45" font-family="Arial, sans-serif" font-size="16" fill="#374151">✓ Professional Equipment Database</text>
    <text x="0" y="70" font-family="Arial, sans-serif" font-size="16" fill="#374151">✓ Top Agricultural Brands Coverage</text>
  </g>
  
  <!-- Website URL -->
  <text x="600" y="580" font-family="Arial, sans-serif" font-size="16" fill="#6b7280" text-anchor="middle">farmequip-database.vercel.app</text>
  
  <!-- Decorative elements -->
  <circle cx="1050" cy="200" r="30" fill="#fef3c7" opacity="0.7"/>
  <circle cx="1100" cy="250" r="20" fill="#dbeafe" opacity="0.7"/>
  <circle cx="1000" cy="300" r="25" fill="#fce7f3" opacity="0.7"/>
</svg>